/* XPM */
static char *_aa2b4fa24ed4b48bd54515f111fc874sz42HKXcLSWIe5xR[] = {
/* columns rows colors chars-per-pixel */
"64 64 186 2 ",
"   c None",
".  c #010000",
"X  c #0B0102",
"o  c #0B0806",
"O  c #140103",
"+  c #1C0205",
"@  c #1A0908",
"#  c #18130D",
"$  c #141212",
"%  c #220106",
"&  c #2B0007",
"*  c #250409",
"=  c #2B0409",
"-  c #220B0C",
";  c #34040A",
":  c #3B020B",
">  c #300006",
",  c #3B0D13",
"<  c #281516",
"1  c #38191D",
"2  c #35261B",
"3  c #282C2A",
"4  c #392629",
"5  c #2C302E",
"6  c #353735",
"7  c #44030D",
"8  c #4B020D",
"9  c #54010E",
"0  c #5C000E",
"q  c #470A13",
"w  c #4C0B14",
"e  c #490610",
"r  c #530512",
"t  c #5C0311",
"y  c #530912",
"u  c #5C0914",
"i  c #5C0D18",
"p  c #481619",
"a  c #5C121E",
"s  c #650212",
"d  c #6C0112",
"f  c #620A15",
"g  c #6B0A16",
"h  c #630B19",
"j  c #6A0B19",
"k  c #730013",
"l  c #7B0014",
"z  c #740C1A",
"x  c #7C0C1A",
"c  c #790518",
"v  c #73161D",
"b  c #4A251E",
"n  c #52201D",
"m  c #581B25",
"M  c #53262D",
"N  c #443625",
"B  c #593327",
"V  c #543A2A",
"C  c #533125",
"Z  c #4D2E32",
"A  c #413838",
"S  c #573A3E",
"D  c #682824",
"F  c #782A28",
"G  c #6A372B",
"H  c #7E332D",
"J  c #773F31",
"K  c #5D412E",
"L  c #5F4731",
"P  c #624D34",
"I  c #6A5339",
"U  c #6A5338",
"Y  c #76583D",
"T  c #4A4242",
"R  c #4D4849",
"E  c #4E504E",
"W  c #5D4D50",
"Q  c #575554",
"!  c #694F53",
"~  c #7F6344",
"^  c #665F60",
"/  c #666767",
"(  c #757171",
")  c #7D7978",
"_  c #830015",
"`  c #8A0016",
"'  c #8D041A",
"]  c #840D1C",
"[  c #8A0E1D",
"{  c #840618",
"}  c #930016",
"|  c #94041A",
" . c #9A0119",
".. c #940C1E",
"X. c #9C0B1F",
"o. c #980017",
"O. c #A3001A",
"+. c #AB011C",
"@. c #A3091F",
"#. c #B4001D",
"$. c #BC001E",
"%. c #8D0B20",
"&. c #9B0820",
"*. c #9A1C26",
"=. c #AC0820",
"-. c #AF0722",
";. c #B40720",
":. c #BB0621",
">. c #B00820",
",. c #A21223",
"<. c #B3212D",
"1. c #C2001E",
"2. c #CC001F",
"3. c #C40321",
"4. c #CB0121",
"5. c #D40122",
"6. c #DF0024",
"7. c #E10024",
"8. c #81593F",
"9. c #923443",
"0. c #9E5140",
"q. c #824F57",
"w. c #826646",
"e. c #856A47",
"r. c #8D6F4B",
"t. c #886646",
"y. c #906E4B",
"u. c #8C704C",
"i. c #95744F",
"p. c #9C7A53",
"a. c #977651",
"s. c #B37956",
"d. c #876D72",
"f. c #817F7D",
"g. c #A58057",
"h. c #A68259",
"j. c #AF845B",
"k. c #B58D61",
"l. c #BB9364",
"z. c #C98E64",
"x. c #C09666",
"c. c #C59B6A",
"v. c #CA9E6C",
"b. c #CEA26E",
"n. c #D1A36F",
"m. c #D4A671",
"M. c #D6A973",
"N. c #DDAD76",
"B. c #D8A772",
"V. c #DFB078",
"C. c #E4B27A",
"Z. c #EAB77C",
"A. c #EFBA7F",
"S. c #EDB97E",
"D. c #EBB87D",
"F. c #F0BB7F",
"G. c #917E81",
"H. c #878484",
"J. c #8C8C8B",
"K. c #9A898C",
"L. c #999898",
"P. c #969998",
"I. c #A8A6A6",
"U. c #ACACAB",
"Y. c #A4A2A1",
"T. c #B6B4B3",
"R. c #BBBDBC",
"E. c #B9B8B8",
"W. c #EFBC80",
"Q. c #F0BB80",
"!. c #F1BC80",
"~. c #C2B8BA",
"^. c #BDC1C1",
"/. c #C3C4C4",
"(. c #C7CACA",
"). c #CCCDCD",
"_. c #C8C7C7",
"`. c #CFD3D2",
"'. c #D5D4D4",
"]. c #DDDEDE",
"[. c #E0DFDF",
"{. c #ECECEC",
"}. c #E7E8E8",
"|. c #F2F2F2",
" X c #FEFEFE",
".X c #F7F8F8",
/* pixels */
"                                                                                                                                ",
"                                                                                                                                ",
"                                                                                                                                ",
"                                                    . . X + % & % % O X . .                                                     ",
"                                                . O 7 l +.$.4.5.4.4.$.O.` s ; O                                                 ",
"                                            . X 9 #.6.5.@.*.,.1.7.7.7.7.7.7.5.O.; .                                             ",
"                                          . O ` 5.7.+.H j.B.x.J o.6.7.6.6.6.7.7.$.> .                                           ",
"                                        . # 8.0.H t B B.!.F.Q.V.Y o.7.6.6.6.6.7.6.X.+ .                                         ",
"                                      . o a.W.A.b.r.Y t.B.!.W.W.e.k 7.6.7.6.6.6.7.4.g X                                         ",
"                                      . P D.S.S.u.p.D.l.w.p.m.t.i 2.7.6.6.6.6.6.6.6.&.7 .                                       ",
"                                    . < b.F.D.S.v.v.D.p.c.p.N 9 5.7.6.6.6.6.6.6.7.7.:.x + .                                     ",
"                                    . K B.D.p.b.n.p.C.x.C.F.l.C l 5.7.6.6.6.7.6.6.7.5...u .                                     ",
"                                  . O | G Y p.C.C.b.D.W.D.D.Q.B.L 0 4.7.6.6.6.6.6.6.6.=.] - .                                   ",
"                                  . 7 <.z.h.P ~ k.p.D.S.Q.D.Q.W.C.I 9 5.7.6.7.6.7.6.7.3.[ u X                                   ",
"                                  X v z.S.!.C.p.P x.W.D.Q.D.D.D.F.C.U 0 5.7.7.6.6.6.7.5.X.] * .                                 ",
"                                . @ s.S.S.S.S.Q.r.2 l.Q.D.D.Q.Q.S.S.N.V  .7.7.6.6.6.6.6.@.[ w .                                 ",
"                                . U D.S.S.S.S.N.V , b l.Q.Q.D.D.S.S.F.s.| 7.6.6.7.6.6.6.3.[ z O                                 ",
"                                . a.F.S.S.S.D.8.q w c F c.W.Q.W.S.S.B.U 1.7.6.6.6.6.6.7.5...[ : .                               ",
"                              . O p i.V.!.S.i.x z w | $.D c.Q.!.F.b.G O.7.7.6.7.6.6.7.6.7.@.[ u X                               ",
"                              . d $.g B a.e.w 2.%.w ..7.+.n u.k.y.D +.7.6.6.6.6.6.6.6.7.7.:.[ x O                               ",
"                              X O.7.6.$.l , g 5.' p X.7.7.#.8 - t 4.7.7.6.7.6.6.7.7.6.6.7.4.[ [ ; .                             ",
"                              % 4.7.6.7.4.i z 6.;.s 3.6.7.7.4.h x 6.7.6.6.6.6.7.$.#.6.6.7.5.*.[ u .                             ",
"                            . 8 6.6.6.6.4.h [ 7._ X k 6.7.7.6.j x 6.6.6.6.6.7.$.& & 4.7.6.6.@.[ g o                             ",
"                            . k 7.6.6.6.6.=.3.7. .X X ` 6.7.5.j { 6.6.6.7.7.1.; . 9 5.7.6.6.#.[ ] +                             ",
"                            X o.7.6.7.6.6.7.7.6.6.` O O } 6.5.z [ 6.6.6.7.2.7 . 8 2.7.6.6.7.3.[ ] = .                           ",
"                            X #.7.6.6.6.7.6.6.6.6.7.` . O l 6.4.5.6.7.7.#.: . : 4.7.6.7.6.6.4.[ [ : .                           ",
"                            + 1.7.6.6.6.6.6.6.6.7.7.` . . X 9 #.5.6.3.l + . . > 5.6.6.6.6.7.5...[ q .                           ",
"                          . + 3.7.6.6.7.6.6.6.6.6.7.d . . . . + ` 3.7 X . . . % 2.6.6.6.6.7.5...] 7 .                           ",
"                          . % 1.7.6.6.6.6.7.6.6.6.7.k . . . . l 5.5.#.% . . . % 2.6.6.6.6.7.5.X.[ q . .                         ",
"                          7  .5.6.6.6.6.6.5.2.7.7.7. .X . . O $.7.6.7.0 . . . 8 6.7.7.6.6.7.7.X.&.$.l = .                       ",
"                      % l 5.7.6.7.6.7.6.7.l & #.7.7.5.8 . . d 7.7.7.7.#.% . O O.7.7.#.0 $.7.6.X.X.5.7.1.d X .                   ",
"                  . : #.7.5.-.4.6.6.6.7.4., 5 < ` 5.7.4._ ` 5.7.7.7.6.6.#.k +.7.5._ 1 5 f 6.6.,.[ 4.7.7.6.{ + . .               ",
"                X 9 4.7.:...[ 5.7.6.7.7.' K L.E.R r +.6.7.7.6.6.6.6.7.7.7.7.5.o.q R J.f.Z 1.7.,.[ X.1.7.7.5.] = . .             ",
"            . . 0 5.6.;.[ w } 7.6.6.6.7.s Q U. X|.P.4 y } 1.5.6.7.6.5.4.#.l p W U.}.E.f.K +.7.&.[ x 8 $.7.7.$.x = . .           ",
"          . . 9 5.5.+.[ g > 3.7.6.6.6.6.r E U. X X'.T.U.( S m h g h a M W J.)..X X XE.) 6  .6.&.[ [ ; 0 6.7.5.,.z + . .         ",
"          . & 3.7.>.[ [ w 0 6.6.6.6.6.6.0 6 I..X}.T.{. X X.X].(.R.^.`.}. X X X[.{. XU.( 4 ;.5.%.[ [ u % 4.7.7.3.[ g X .         ",
"        . X  .7.:.[ [ [ ; ` 7.6.7.6.6.7.` $ H.|./.].{._./.).(.~.d.G.E.^.).)._.U.U..XY.E w 5.4.[ [ [ z + +.7.6.6.@.[ , . .       ",
"      . . 9 6.5...[ [ [ ; O.7.6.6.6.6.7.5.: 3 L.'. X X{.^.! z >.$.:.' q ^ /.}.{.{._./ < O.7.3.[ [ [ x *  .7.6.7.1.[ z O .       ",
"      . X O.6.=.] [ [ ] = #.7.6.6.6.6.7.7.1.9 < H./.R.K.9.:.6.7.7.7.7.5.=.! Y._././ * } 7.6.+.[ [ [ ] = ` 7.7.7.5...[ ; .       ",
"      . = 5.4...[ [ [ x & #.7.6.7.6.6.6.6.7.6.#.o.%.%.+.5.7.7.6.6.7.7.7.7.4.| v g { 1.7.7.5.*.[ [ [ ] ; _ 7.7.6.6.X.[ i .       ",
"      . 9 7.;.[ [ [ [ ] * +.7.7.6.6.6.6.6.7.6.7.7.7.7.7.7.6.6.6.7.6.6.6.7.6.7.7.6.7.7.7.7.4.[ [ ] [ [ ; l 7.6.6.5.@.[ z o       ",
"      . s 7.@.[ [ [ [ z O } 7.7.6.6.6.7.6.6.6.6.7.6.7.6.6.6.6.6.6.6.6.7.6.6.7.6.6.6.6.6.7.>.[ [ [ [ [ = d 7.6.6.5...[ x +       ",
"      . 0 6.X.[ [ [ [ z X k 7.7.6.6.6.6.6.6.6.6.6.6.6.6.7.6.6.6.6.7.6.6.6.6.6.6.6.6.6.7.5.%.[ [ [ [ [ + t 7.7.6.@.[ [ ] +       ",
"      . : 4.[ [ [ [ [ f . : 5.7.6.7.6.6.6.6.6.7.6.6.7.6.6.6.6.7.6.6.6.6.6.7.6.6.6.6.6.7.;.[ [ [ [ [ z X : 4.3.@...[ [ z o       ",
"      . X ` ..[ [ [ [ y . O $.7.6.6.6.6.6.6.6.6.6.6.6.6.6.7.6.6.6.6.6.6.7.6.6.6.6.6.6.5...[ ] [ [ [ u . O x [ [ [ [ [ y X       ",
"        . + g [ [ [ ] * . . d 7.7.6.6.7.7.6.7.6.6.6.7.6.6.6.6.6.7.6.6.6.6.6.7.6.6.7.6.-.] [ [ [ [ ] = . . ; ] [ [ [ f O         ",
"          . X : u f ; . . . % 3.7.6.6.6.7.6.6.6.7.6.6.6.6.6.6.7.6.6.6.6.6.7.6.6.6.6.3.[ [ [ [ [ [ f . . . . * q e ; X .         ",
"            . . . . . .     . d 7.6.6.6.6.6.6.6.6.6.6.7.6.6.6.6.6.6.6.7.6.6.6.6.7.5...[ [ [ [ [ x - .     . . . . . .           ",
"                            . + #.7.7.7.7.7.6.7.6.6.6.6.6.6.7.6.6.6.6.6.6.6.6.7.5.@.[ [ [ [ [ ] ; .                             ",
"                              . 7 #.O.2.7.6.6.6.6.6.6.7.6.6.6.6.6.6.7.6.6.6.7.6.=.] [ ....g f e X .                             ",
"                                o d $.6.6.6.6.6.6.6.6.6.7.6.6.6.6.6.6.6.6.7.6.@.[ [ @.4.5.#.s + .                               ",
"                              + { 6.7.6.6.6.7.6.7.6.6.6.6.6.6.6.6.7.7.6.7.5.,.[ [ :.5.7.6.7.6.+.;                               ",
"                              l 7.7.6.6.6.6.6.6.6.#.4.6.6.6.6.7.6.6.6.7.5.&.[ [ :.7.6.6.6.6.6.6.| *                             ",
"                            & 4.7.6.6.6.6.6.6.7.5...&.6.7.6.6.6.6.7.6.3...[ [ >.6.6.6.6.6.6.7.5...f                             ",
"                            9 6.6.6.6.6.6.7.7.7.>.[ ] #.7.7.6.6.7.5.@...] x &.5.7.6.6.6.6.6.6.@.[ x @                           ",
"                            8 5.6.7.6.6.6.6.7.3...[ y l 7.7.7.6.2.,.[ [ ] u 3.7.6.6.6.7.6.6.>.[ [ ] *                           ",
"                            + 1.7.6.6.6.6.6.:.[ [ x % :  .$.3.@.] x z z w & $.7.6.6.7.7.5.@.[ [ [ g X                           ",
"                            . s 6.7.6.4.;.X.[ [ [ 7 . . X O + + @ @ + X .   0 5.7.7.5.:...[ [ [ [ ; .                           ",
"                              X s X.X...[ ] [ ] w X                           0 :.:.X.[ [ [ [ ] q X                             ",
"                              . . = f z ] x j ; X                             . % u z ] [ z f = .                               ",
"                                  . X O @ O X                                     . O * * O X .                                 ",
"                                                                                                                                ",
"                                                                                                                                ",
"                                                                                                                                "
};
