/* XPM */
static char *_fcac0eeae6f43fdb990f52a9b4e3852OHxFrysnjaAyhv9l[] = {
/* columns rows colors chars-per-pixel */
"64 64 128 2 ",
"   c None",
".  c #010101",
"X  c #050C04",
"o  c #060708",
"O  c #070809",
"+  c #0A0D0F",
"@  c #061205",
"#  c #081606",
"$  c #091A07",
"%  c #0B1E08",
"&  c #0B0E10",
"*  c #0E1314",
"=  c #101517",
"-  c #141A1D",
";  c #0C2309",
":  c #0E290A",
">  c #102E0C",
",  c #12330D",
"<  c #143B0F",
"1  c #161D20",
"2  c #1A2326",
"3  c #1C262A",
"4  c #1F292D",
"5  c #202A2E",
"6  c #222D31",
"7  c #253136",
"8  c #29373C",
"9  c #2C393F",
"0  c #174210",
"q  c #184711",
"w  c #1A4C13",
"e  c #1C5314",
"r  c #1F5B16",
"t  c #205F17",
"y  c #216117",
"u  c #226418",
"i  c #246B1A",
"p  c #27721B",
"a  c #28761C",
"s  c #2A7C1D",
"d  c #2C3B40",
"f  c #33454B",
"g  c #384B52",
"h  c #3E535B",
"j  c #40555D",
"k  c #425761",
"l  c #455C65",
"z  c #475F68",
"x  c #476069",
"c  c #4A646D",
"v  c #4D6770",
"b  c #4D6872",
"n  c #526E78",
"m  c #55727C",
"M  c #2C821F",
"N  c #2E8620",
"B  c #2F8A21",
"V  c #308E22",
"C  c #319122",
"Z  c #349B25",
"A  c #37A226",
"S  c #38A627",
"D  c #3AAD29",
"F  c #3DB52B",
"G  c #3FBA2C",
"H  c #40BE2D",
"J  c #42C42E",
"K  c #44C92F",
"L  c #44CB30",
"P  c #46D232",
"I  c #48D633",
"U  c #4ADB34",
"Y  c #4DE436",
"T  c #4FE937",
"R  c #4FEC38",
"E  c #50EE38",
"W  c #51F239",
"Q  c #53F83B",
"!  c #5A7683",
"~  c #5A7883",
"^  c #5F7E8B",
"/  c #61818D",
"(  c #628290",
")  c #6A8C9A",
"_  c #6E91A0",
"`  c #7196A6",
"'  c #779DAD",
"]  c #7CA3B4",
"[  c #82ABBD",
"{  c #84ADC0",
"}  c #86B0C2",
"|  c #89B3C6",
" . c #8AB5C8",
".. c #8FBBCF",
"X. c #99BDCE",
"o. c #8FBCD0",
"O. c #94C3D7",
"+. c #97C6DB",
"@. c #98C7DC",
"#. c #9AC9DE",
"$. c #A3CCDF",
"%. c #9CCCE1",
"&. c #A4CEE1",
"*. c #AED3E3",
"=. c #B2D5E5",
"-. c #B7D8E6",
";. c #BFDBE7",
":. c #B6D9E9",
">. c #BBDBE9",
",. c #C9E3EE",
"<. c #CDE6F1",
"1. c #DDEDF3",
"2. c #E1EFF4",
"3. c #E6F2F6",
"4. c #EBF4F8",
"5. c #EFF7F9",
"6. c #EFF8FA",
"7. c #F2F9FB",
"8. c #F6FBFB",
"9. c #F7FBFC",
"0. c #F8FBFC",
"q. c #F9FCFC",
"w. c #FAFDFD",
"e. c #FBFDFD",
"r. c #FCFDFD",
"t. c #FCFEFD",
"y. c #FDFEFE",
"u. c #FEFFFE",
/* pixels */
"                                                                                                                                ",
"                                                                                                                                ",
"                                                                                                                                ",
"                                                                                                                                ",
"                                                  . . . . . . . . . . . . . . . .                                               ",
"                                                . . . . . . . . . . . . . . . . . . .                                           ",
"                                              . . . . . X $ % $ % ; ; ; ; @ . . . . . . .                                       ",
"                                            . . . . $ i F L P P I I I I I J C 0 X . . . . .                                     ",
"                                          . . . . , H W W Q W W W W W W W Q W Y Z ; . . . . .                                   ",
"                                          . . . ; J W W W W W E W W W W W W W W Q L 0 . . . . .                                 ",
"                                        . . . X A Q W W W W W W W W W W W W W Q W W I q . . . . .                               ",
"                                        . . . w T W W E W W W Q W T Y P J H H F F H J A $ . . . .                               ",
"                                      . . . X Z W W W W W Q Y D p q : % @ @ X X X X X @ X . . . . .                             ",
"                                      . . . ; J W W W W W K q X . . . . . . . . o o o o . . . . . . .                           ",
"                                      . . . 0 P W W W W Y 0 . . . . - 9 h v ! ( ) ` ` _ ^ k 3 . . . .                           ",
"                                      . . . u I W W W W C . . . + v { O.+.#.%.:.<.<.,.,.,.>.X.c O . . .                         ",
"                                      . . X a I E E Q Q y . . o h O.#.@.@.@.,.9.q.y.y.q.y.9.5.;.m O . . .                       ",
"                                    . . . @ M I Q W E E e . . 3 m o.#.@.@.#.1.y.t.y.q.y.y.y.y.7.$.l . . .                       ",
"                                  . . . . % V I E E E E e . . d b ] @.@.@.@.=.2.4.3.7.y.9.9.8.3.&. .5 . . .                     ",
"                          . . . . . . . . > V I Q W W E w . . f c m | @.@.@.@.#.$.#.&.=.-.=.*.&.#.#.v . . .                     ",
"                      . . . . . . . . . . 0 C P W W W E q . o g c c ~ | %.@.@.@.@.@.@.@.+.+.+.@.@.| z . . .                     ",
"                      . . . . X $ # . . . e C K W W E E e . . f b c c m ] O.#.#.#.#.#.@.#.O.o.[ ) n f . . .                     ",
"                    . . . . q F L J q . . y C K W W W W u . . 6 c c c c b / ' [ | ] ] ` ) ^ m v x c f . . .                     ",
"                    . . . $ J Q Q W w . X p C K W W W Q V . . + h c c c c x b b b b c c c x c c c c 6 . . .                     ",
"                    . . . w E W W Y < . X p C J E W W Q J # . . 2 x c c c c c c c c c c c c c v z 9 O . . .                     ",
"                    . . . a Q E W Y > . X a C F E E E E E t . . . 6 x c c c c c c c c c c c k f - . . . .                       ",
"                    . . . s Y E Q I ; . X p C D E E W W Q J % . . . - f l c c c c x x k g 6 = o . . . . .                       ",
"                    . . . i Z F F C @ . X a C A R Q E W W W V X . . . o * 4 7 7 4 2 - * X . . . . . . .                         ",
"                    . . X p C C C s @ . X a C Z Y E E E W W E a X . . . . . . . . . . . . . @ < ; . . .                         ",
"                    . . X a C C C s @ . @ s C C K E Q E Q E E E F i ; X . . . . . X @ : e V H T M . . .                         ",
"                    . . X s C C C M $ . @ M C V G E E E E E E E Q E I D V s s s B D J U E W W Q M . . .                         ",
"                    . . X s C C C M $ . X s C C A T Q E E Q E Q W W W Q Q Q W W Q W Q W W W W E i . . .                         ",
"                    . . @ s C C C s @ . X s C C C U E W W W W E W W E W W E W W W W E W W E W Y t . . .                         ",
"                    . . @ s C C C s X . @ M C C C J W W W W W W E W W W W W W W W W W W W W W I w . . .                         ",
"                    . . @ M C C C s @ . @ s C C C D E W E W W W W W E W E W W E E W W E W E W J u . . .                         ",
"                    . . ; M C C C s X . @ s C C C Z Y W W W W W W W W W W W W W W W W W W W W H a X . .                         ",
"                    . . ; B C C C M @ . X s C C C C P W W W W E E W W W W W E W W E W W W W E S p X . .                         ",
"                    . . ; M C C C M @ . X s C C C C F E E W W W W W W E W W W W W W W W E Q I C u X . .                         ",
"                    . . $ M C C C M # . @ s C C C C C I Q E W E W W W W W W W E E W W W W E H V u . . .                         ",
"                    . . $ M C C C M $ . # M C C C C C A U Q E E E W W W E W W W W W W W W I Z C t . . .                         ",
"                    . . $ M C C C V ; . @ M C C C V C V S I E Q W W W W W W W W W W W W Y A V C e . . .                         ",
"                    . . @ M C C C B ; . @ s C C C C C C V Z H U T E W W W W W W W E Y J Z V C C 0 . . .                         ",
"                    . . X a C C C V : . X s C C C V C C V C C C Z D G H J L L L J D Z V C C C V > . . .                         ",
"                    . . . t C C C C , . X s C C C C V C V C C C C C V V V C C C V V C C C V C V ; . . .                         ",
"                    . . . : M C C C < . X a C C C C V V C C C C C C C C C C C C C C C C V C C s @ . . .                         ",
"                      . . . < s B B , . . i C C C V C C C C C C C C C C C C V C C C C C C C C y . . .                           ",
"                      . . . . @ , : X . X u C C C C V C V C C M t e u p s N V V V V s M V C C < . . .                           ",
"                        . . . . . . . . . y C C C C C C C C C < . . . X @ $ ; : ; $ ; i C C M ; . . .                           ",
"                          . . . . . . . . w C C C C C C C C M $ . . . . . . . . . % u C C C s X . . .                           ",
"                              . . . . . . < C C C C C C C C s @ . . . . . . . @ y V C C C C i X . . .                           ",
"                                    . . . > V C C C C C C C s @ . . .   . . . , C C C C C C u . . .                             ",
"                                    . . . % M C C C C V C C s X . .     . . . < C C C C C C y . . .                             ",
"                                      . . # M C C V C C C C s @ . . .   . . . < C C C C C C u . . .                             ",
"                                      . . X s C C C V C C C s X . . .   . . . , C C C C C C i o . .                             ",
"                                      . . X i C C V C C C C p X . .       . . % N C C C C C e . . .                             ",
"                                      . . . t C C C C C C C e . . .       . . . ; q w w w , X . .                               ",
"                                      . . . ; N C C C C C p $ . . .       . . . . . . . . . . . .                               ",
"                                      . . . . > t u i y 0 @ . . . .         . . . . . . . . . .                                 ",
"                                        . . . . . o . . . . . . .                                                               ",
"                                          . . . . . . . . . . .                                                                 ",
"                                            . . . . . . . .                                                                     ",
"                                                                                                                                ",
"                                                                                                                                ",
"                                                                                                                                "
};
