/* XPM */
static char *_4d8efdb6250426cd53141887708ecca1lG4rbd9QUWurBTL[] = {
/* columns rows colors chars-per-pixel */
"64 64 198 2 ",
"   c #3D2F30",
".  c #452D2F",
"X  c #4F2D2E",
"o  c #522C2E",
"O  c #5B2C2E",
"+  c #452F30",
"@  c #4E2F30",
"#  c #542F30",
"$  c #5C2F30",
"%  c #473535",
"&  c #573031",
"*  c #5D3132",
"=  c #5C3B3B",
"-  c #642E2F",
";  c #6B2D2F",
":  c #742D2F",
">  c #7C2D2F",
",  c #632F30",
"<  c #6C2F30",
"1  c #742E30",
"2  c #7C2E30",
"3  c #643031",
"4  c #6B3132",
"5  c #743132",
"6  c #7C3132",
"7  c #7E3738",
"8  c #743A3A",
"9  c #7B3C3C",
"0  c #574A48",
"q  c #5C504E",
"w  c #6A4242",
"e  c #7A4544",
"r  c #734A49",
"t  c #7A4D4B",
"y  c #685754",
"u  c #775653",
"i  c #7D5B58",
"p  c #786864",
"a  c #822D2F",
"s  c #8C2C2F",
"d  c #992D2F",
"f  c #842E31",
"g  c #8C2F31",
"h  c #942F31",
"j  c #9A2F31",
"k  c #843133",
"l  c #8C3133",
"z  c #823738",
"x  c #8A3738",
"c  c #833B3B",
"v  c #8B3A3B",
"b  c #943133",
"n  c #9B3234",
"m  c #943738",
"M  c #9C3738",
"N  c #943B3C",
"B  c #9D3B3C",
"V  c #A03E3E",
"C  c #9A3F40",
"Z  c #A13F40",
"A  c #854443",
"S  c #8D4343",
"D  c #804847",
"F  c #834B4A",
"G  c #8C4D4C",
"H  c #954343",
"J  c #9D4444",
"K  c #9D4847",
"L  c #934D4B",
"P  c #9C4B4B",
"I  c #87514F",
"U  c #9A504F",
"Y  c #8B5452",
"T  c #875855",
"R  c #8F5D5A",
"E  c #935452",
"W  c #9D5553",
"Q  c #945957",
"!  c #9C5956",
"~  c #915C59",
"^  c #9D5D5A",
"/  c #A24444",
"(  c #A34847",
")  c #A44C4B",
"_  c #A6504F",
"`  c #A8504F",
"'  c #A55452",
"]  c #A85553",
"[  c #A55956",
"{  c #AA5957",
"}  c #A35C5A",
"|  c #AB5C5A",
" . c #82615D",
".. c #8B625E",
"X. c #93625E",
"o. c #9D615D",
"O. c #A4615E",
"+. c #AC615E",
"@. c #8D6B66",
"#. c #9B6662",
"$. c #956A65",
"%. c #966A65",
"&. c #9C6A65",
"*. c #9B6E69",
"=. c #89736D",
"-. c #91716B",
";. c #9D736D",
":. c #8D7670",
">. c #8A7A74",
",. c #9D7671",
"<. c #927972",
"1. c #9C7973",
"2. c #A46461",
"3. c #AD6561",
"4. c #A36A66",
"5. c #AD6A65",
"6. c #A36E69",
"7. c #AD6D69",
"8. c #B06663",
"9. c #B16A66",
"0. c #B16D69",
"q. c #A2726D",
"w. c #AC726D",
"e. c #B3726D",
"r. c #AC7670",
"t. c #A47B75",
"y. c #AC7A74",
"u. c #B47671",
"i. c #B57B75",
"p. c #B87D76",
"a. c #B47F79",
"s. c #B87F79",
"d. c #8D847C",
"f. c #92837C",
"g. c #9D827B",
"h. c #A2837C",
"j. c #AC827B",
"k. c #B5837C",
"l. c #BA837C",
"z. c #958C84",
"x. c #9A8A82",
"c. c #9D9087",
"v. c #A38E86",
"b. c #AC8B83",
"n. c #BB8780",
"m. c #B48B83",
"M. c #BC8C84",
"N. c #AA9087",
"B. c #A5938A",
"V. c #AC9289",
"C. c #B49087",
"Z. c #BE9087",
"A. c #B5948B",
"S. c #BD938A",
"D. c #B7988F",
"F. c #BD988F",
"G. c #A69B91",
"H. c #AB9C92",
"J. c #B59C92",
"K. c #BD9C92",
"L. c #AEA49A",
"P. c #B7A297",
"I. c #BCA197",
"U. c #BCA499",
"Y. c #BDA99E",
"T. c #B5ADA1",
"R. c #BDACA0",
"E. c #BDB2A6",
"W. c #BDB7AB",
"Q. c #C0958C",
"!. c #C1988F",
"~. c #C39D93",
"^. c #C4A196",
"/. c #C5A49A",
"(. c #C8A59A",
"). c #C4A99E",
"_. c #C8A99E",
"`. c #C5ADA2",
"'. c #C9ADA1",
"]. c #C5B1A5",
"[. c #CBB2A6",
"{. c #C6B6A9",
"}. c #CCB6A9",
"|. c #C4B9AC",
" X c #CDBAAD",
".X c #D0BCAF",
"XX c #C6BFB1",
"oX c #CDBDB0",
"OX c #D0BEB1",
"+X c #CDC3B5",
"@X c #CDC6B8",
"#X c #CEC9BB",
"$X c #D2C3B5",
"%X c #D2C7B9",
"&X c #D4CBBC",
"*X c #D6CFC0",
"=X c #D7D1C2",
"-X c #D8D3C3",
/* pixels */
"~.M n n n b n b n k k l b b B ^.K b b n k , b l 2 b n n l J ^.Z f 5 6 n n l b 7 l n n n n n m f M.Q.n M n n n n b M n n n n l z ",
"Q.M n l 6 b n b n b m 6 2 f ] `.9 4 1 k l b b l k l l n l B !./ f k b b l l b J M n n / M n n M l.i.n _ M n n n l n n n n k k b ",
"Q.n n b l k l b n n n n l g | }.B 3 @ 5 k b l n n b l n n B ~.J n n k 5 l k l n n n n V n n M B ~.i.n b n n n n n M V m b m n n ",
"Q.M n n n n n b n n n n n j K ^.C k 5 k b l b n n l b l m B ^.( n n b 6 6 l k 6 b n n n n n b n !.s.n n n n n n n Z M l l n n n ",
"Q.z 2 g h j j j h n h n j j M M.H > > O > l b b n h k t A.l._./ j j j b g f 2 f 5 n j n j n n n ~.M.d n j n n n n n n b d n s b ",
"&Xx.=.q.7.7.3.3.| [ [ | 3.3.5.[.D.>.1.t.h.y.l.i.e.4.q.g.+X}.&XF.s.i.o.O.9.R  .} | { | | { 3.9.e.}..X3.] ` ` ` ] _ P ) ` ' ] _ { ",
"s.p.i.k.s.s.u.'.M.0.0.e.u.u.p.j.g.k.k.l.m.V.n.~._.&X(.I.F.A.U.R.'.'.).(.).Q.!.'.=X}.Q.Z.Q.~.^.(.^.^.l.p.l.M.Z.I. Xi.3.4.4.O.5.e.",
"n g h h h f f 5.S g j j j j g h g 1 f b d l n g *.D.B x n k 6 5 m M M n M b n _ %Xi.n M ( _ B n M M V j M n b L (.B n l 1 O s n ",
"6 $ l n l l b e.I 2 n n n b 6 k n l b n b b b h e.Z.6 6 n b b 6 l b b b n k l ( $X0.M M n M n n n n M n n n h ( ^.M n n n b b l ",
"b b l l l l 2 i.| j n b l b b n n n n n l 5 l h e.A.2 4 l b l l b l l n l 6 f K $Xe.n n n n n n n n n n n n n / ~.N l 6 n n 4 3 ",
"b b n n n b h 7.) j l b n k k b n n n n b 4 5 n u.J.5 4 l n n b b k 6 l 6 4 f J +Xi.j n n n n n n n n n g 3 - S ~.c 5 3 l l 4 3 ",
"j l h g n n j q.] g f h h 2 g k l h b b 6 - 5 M r.`.N $ > l g a g ; 1 g b h h ( $Xi.d n h h d n j j j h f < o e I.v : 5 4 < g j ",
"0.0.7.5.3.e.+.Q.Z.u.e.e.5.( _ E A ( ( J e e v e j.=X}.V.&.O.&.5...R Q Q ' { ] 5.&X_.5.9.#. .$.e.e.u.i.e.0.q.t.b.%XB.>.h.B.d.<.e.",
"{ ] ] ' U ' U W ] | 3.| [ P m.m.U ] _ ( G A L S ' 5.5.7.e.i.k.p.S.[.M.Q.M.l.i.k.M.l.i.y.r.e.e.l._.p.s.l.l.i.u.e.q.-.*.0.0.7.p.[.",
"j n j h b j h g n j j f 2 a 6.+.j n h b b n b k b g ; 1 2 b h h ) u.n n n b 3 l n j n > 6 h j M 9.n j j n j j j h g k n j n n ~.",
"b n n n n b n n b b 6 5 g h u.3.a k b 6 3 6 6 1 k 6 6 3 O k b h ) i.n n n n l b n n n n b n n n 3.M M b l b n n n f N / M n M Z.",
"7 f b n b b b l 6 5 $ & k g 0.$.X - l k + + 4 , 5 6 5 ; 5 l n b ( e.j n n j n n n n n n n n n M 9.M n b 3 5 n n n k b M S 5 7 m.",
"M n b j k l 2 2 k 5 6 k b h 5.#.: f 6 6 . # 1 k & O 5 6 k l n n ( 0.b b M Z n B M n n j n n n m r.7 6 k b b n b 5 l n n :   + B.",
"7.N N ( M n m x l k l b b h r.).) H x g , ; : g : ; o ; g l n n H e.j h n Z n B j j h < h j g 8 h.5 - f n n n g ; O g n h > 7 F.",
"oX'.(.oX/.~.~.'.U.K.~.Z.A.M. X-XOX}.Z.e.2.! 3.9.+.5.o.^ ~ [ | 8.i.~.8.3.| { 8.9.9.3.2.@.7.q.q.t.[.p.e.q.e.e.u.i.1.:.;.u.i.l.Q.$X",
"I.N.i p -.a.s.$XD.7.| } | ^ o.3.3.| { ! T Y K.C.O.O.X... ._ ) ' R u Q ] P } n.~.[.'.n.y.i.p.i.l.l.e.M.V.c.m.C.E.W.p i o.8.s.u.p.",
"S c ; : f > x ~.L s n n n j h j j h g g 2 > t.#.g > l k > j n a 1 O 1 j n l x M ] | M b j j j j n b g - + 4 g ..B.. - j n / ( ( ",
"n l b b b n b M.L l n n b b b l l b k b k l :.5.x l l k 5 k b b n m 1 1 1 k h j _ Z g f j j n n n j V j l b b | B.+ 3 n n n n B ",
"l n n n k f n m.) n n n n n n n 5 5 l b b > ,.#.6 6 4 k l b n b b l $ < , 2 M j 7.[ C M V j M n V d d j n n g O.B.3 b n n n n n ",
"b n b b b b M M.) n b l n n n n l l n n l - t.[ l 3 + < b b n b 1 , 1 b b 6 b n y.^ Z m h b n n b n n n n n h @.^.M n n n n n n ",
"n n 6 6 n n / /.) l , 4 b j n n b b l n n j i.3.j h l n n l b l 6 b n g 2 l n / a.L j m b b l f l n n n n n h ..C.n n n n n n n ",
"j ( 8 O h h C {.8.: 1 2 d h g n n n b l M J M.n.) ) ) b s l : s h 2 h f 2 2 P m i.) d V M j f # < g j n n n h #.n.j h h j j j j ",
"i. XP.q.e.r.b.=X}.b.M.Q.Q.M.l.n.M.M.n.Z._.'.$X-X&X&X$Xk.$.$.q.w.u.;.r.u.u.a.s.n.'.a.3.3.] ] ] F 0 r ( / C D K l.$XM.1.w.0.0.u.e.",
"i.i.p.i.u.y.y.y.i.t.i.i.M.-X XJ.D.~.~.K.~.~.^.~.K.^.K.I.@X%X^.n.l.n.j.h.h.s.s.s.s.u.i.F.`.%X$Xi.w.r.0.0.4.-.r.<.d.m.n.`.OXM.l.s.",
"j j j j ; ; h j j g j d ] %XO.: ; k 5 k n n n l k b b b V.b.x f h j j , , j j j j j j n J /.$X/ h 2 b n b b 1 . . f j u.~.j n j ",
"b l n n l b n n n l l n ] %X| s f b l n n n n 6 6 n b b M.q.1 5 b n b < , n n n n n n k f Q.OXZ g 5 l n n n l k # , g t.K.n n 6 ",
"f 6 b n n b n n n n n h ] %X| h 6 l n l n n n l m 6 3 g k.0.f l b n n m b n n n n b b n h M.OXZ f g b n n k b n k 1 g t.~.l b k ",
"6 5 1 b b b n n n n n j ] %X~ g 1 5 l k n n n n n 6 5 ; =.4.h k b n n n b n n n n n b b j Q.[.M n b n n b 3 l b k 6 ; <.!.b n b ",
"1 < 2 j 1 1 g 2 f j j h { %XT g > ; > ; - s b b 2 2 > : g.5.d b j j j j g h n j j j h g > l.l.M n n j j j n h ; 1 1 O t.Q.n j - ",
"2.3.| } ~ ~ [ R ~ 2.3.| Z.-Xi.[ } i i ~ ~ } | | ^ ^ | [ ^.Z.| +.3.7.9.0.0.u.i.i.k.l.l.m.j.}..X'.m.0.e.l.i.u.i.,.$.6.p L.}.0.3...",
"OX~.Q.Q.M.u.7.e.j.m.l.k.m.XX=X&X+X+X&X-X&X$X%X XU.{.=X&X&X+X&X=X-X%X}.`.R.}.[.[.~.!.^._._._.(._.&X_.Q.Q.M.Z.Z.l.8.l.M.M.Q.Z.F.).",
"{ n b 5 l h f < 1 b 2 g - A l.E.q q R l.5.U P H 7 K +.| ] W { u.*Xs.v v * v N N k b M n M M M M _.{ d h n n n j j n j n n 2 6 } ",
"] n b 4 k n b k 6 b l n 5 > | Y.% o 2 k a > 5 > l l s b n h n / %X6.g l 6 k < g n n n b n n n M ~.+.M b n n n n n n n l 6 k f ] ",
"| n n b k b M n n n b n n g ^ `.9 k 4 < > 6 - 2 b l l n n n n K $Xq.g 2 k k 6 b n n n n n n n n M.} m l n n n n n n n l l n b ) ",
"3.n n b b n n n n n n n n b ^ ).M k & 1 m J 6 k k l b b n n j ( $Xi.j n k b n n n n n n n n n M Q.G g n b n M n b b b n n n h K ",
"e.f < , h j g h b n h h b h ~ P.c a l M n b > a 4 6 b b b k l ( %Xu.j n 2 : h h j j j j j j d n M.G h n b M V j j 2 > j j j j / ",
"`.$.*.4.e.u.q.,.i.i.y.j.h.m.R.#XC.M.^.[.~.F.M.m.m.A.A.Q.!.H.K._.-X~.+.| 4.$.2.8.5.0.0.e.i.i.p.p.[.Z.e.e.9.8.8.0.e.#.O.3.+.3.+.p.",
"(.).(.U.^.'.OX&X^.S.c.z.>.<.l.k.B.h.f.z.V.!.$X(.M.S.Z.n.m.C.A.S.b.b.Q.Q.Z.^.}.OX-X{.~.!.M.M.M.M.p.l.M.S.D.^.(..X-X`.(.)._.[.[.'.",
"m m n l x N ) '.( f 5 : 4 ; > h - O ; - k n M.) j b l b l l b h > f j j n l c ) `.) M n n d M n n n n / m n n e.`.N n M M M V M ",
"n l n b l 1 w R.K b b n b 5 5 6 3 , * 4 l m k.G b b n n b $ < l j f l n n l 2 J '.) j n n n n n n n n M n n n e.[.B n n n n n n ",
"b 5 b n l 1 9 I.P < 4 n l k 6 k 4 4 # k n l h.t f b b n k 3 5 b n l 5 l 6 2 j (  X3.n n n n n n n M M n n n n 0.}.B n n n b n n ",
"b b n n l k m U.P : k n b n n n n b 5 b k 5 v.Y f l l n b k 6 l n n n b k l n /  X| n b k l n n n n n n b b n 3.(.M n n l , k b ",
"f O f g ; 1 v I.F O s b s b > s n s b a : 4 x.y - g g j j n n n j n j j h j j / }.) j j : ; b j j j n n j j h e.).n j j 1 1 5 g ",
"! I U U E Y ~ E.f.*.e.3.e.e.*.4.7.@.4.$.&.C.@XT.c.q.$.[ +.{ { { { ] ` { 0.i.0.7.$Xn.8.3.O...6.e.9.5.+.| { | e.^..X5.0.8.O.o.7.+.",
"@XE.).(.U.P.L.L.Y.(.~.S.^.J.E.-XoX[.}.-X=X&X|.{. X X}.}.}.[.}.}.$X&X$X$X$X$X X'.).K.R. X X X X.X&X%X).(.[.(.(.'.[.[.[.].`.`. X%X",
"`.K B B N M 7 5 7 M b l M l Q +XW B K n.y.L = = N N B N B Z Z V i.&X&.) ( / V B B M v C Z J / V 0.9.M M V V V V N V M v 7 c J e.",
"`.c b n n n n n n n g l n l L |.F h h b m h < , b b n h n n n j ] ].v j n h b n n b l l j g f 2 5 n n M V j d j n n b b z $ - ! ",
"G.4 b n b n n n n n b b n b P  X) h 2 f k l 1 5 4 5 n n n n n l I `.3.( b b b n n l l b n 5 * 6 e S n n n n d j n n n b 4 4 2 } ",
"H.c n n b l n n n b n n k a P {.` h C ] B n n n m x n n n n n h } #X&X[.M.+.b n n n n b 6 < b n n b n n V n V j n n n b k l l ' ",
" XK d n b b b j n n b h - o !  X) j H R.8.j l b j n n n n j j h | }.).~.}.[.K h g n n n h a h n N n n n d V d j n n d k a b d ' ",
"=Xe.) L F r L ) ) _ ' { i y q.$X{ Z 2.@Xa.H C ( ( ( K ) ) ] ] ] s.}./.3.Q.-Xl.` ] { | | +.8.8.0.).(.u.5.9.u.3.8.` ` } _ ` ] { p.",
"R.K./././.{.%X$XI.K.~.).)./.^.P.V.m.J.`.S.M.Q./. X$X X.XOX.XoX$X X{.$X}.~._.'.}.&X X~.D.v.S.M.p.n./.}.}.}.}.oX&X$X_.(.^.!.!.(._.",
"x z C M C P ,.+Xu 4 M x 7 M N 3 * 8 8 x n M B C e.'.{ ) ) ) ) ( K C / ( Z M V ] $X0.n b k l b n j M V B V V Z i.Q.V M M M M V M ",
"h h j M j f e |.I 1 b b k k l k l k b l n b b h L S.M j n n j n M n n n n n j V '.3.j n l 6 k b $ k n n n j h 3.l.d n n d d n n ",
"h m m f j 2 r  X) n n n k 5 b n n b k b b b n b v m.V n n n n b b b n n n B V V '.3.h k b b k k 1 5 b k b n h 8.Q.d n n V V n n ",
"M j h l M g S }._ j b f b b l b n b b n n b k l ) !.m z b n n n b l n n n n m c {.O.j n n g $ f b n b b n n j 0.Q.j n n d j V d ",
"j g 2 h j j / [.P j h g b b f h n n n n g b l 5 o.~.m > h n n n n n j j j h < 9  Xp > j j < . 1 n n n h n j j 9.Q.j n j d d j d ",
"3.#.$.o.0.S.Z.oXu.] ] _ ) ) ) ) ( ( ( H K ( ( S J.oXP P ( ( ( ( ( ) ] ] ] ' W O.$XL.p +.| u u E ) P P _ ` ) ( p.}.u.8.+.8.8.8.+.",
"*X'.~.!.~.~.!.Z.M.Z.Z.M.Q.Z.).oX^.Z.M.M.M.M.Q.~.].}./.).`.[.}.i.w.y.l.i.w.A.`.[.}.[.'.^./._.]. X+X{./.)._.~.~.!.(.(.(.~.~.~.~.~."
};
